<?xml version="1.0" encoding="utf-8"?>
<svg xmlns="http://www.w3.org/2000/svg"
	xmlns:xlink="http://www.w3.org/1999/xlink"
	width="1600px" height="22px" viewBox="0 0 1600 22">
<path fillRule="evenodd" d="M 0-0C 0-0 0 15.36 0 15.36 0 15.36 1.37 15.35 1.37 15.35 9.32 15.35 20.24 22 26.21 22 29.19 22 51.04 15.86 53.03 15.86 53.25 15.86 55.37 15.35 55.37 15.35 63.32 15.35 74.24 22 80.21 22 83.19 22 105.04 15.86 107.03 15.86 107.25 15.86 109.37 15.35 109.37 15.35 117.32 15.35 128.24 22 134.21 22 137.19 22 159.04 15.86 161.03 15.86 161.25 15.86 163.37 15.35 163.37 15.35 171.32 15.35 182.24 22 188.21 22 191.19 22 213.04 15.86 215.03 15.86 215.25 15.86 217.37 15.35 217.37 15.35 225.32 15.35 236.24 22 242.21 22 245.19 22 267.04 15.86 269.03 15.86 269.25 15.86 271.37 15.35 271.37 15.35 279.32 15.35 290.25 22 296.21 22 299.19 22 321.04 15.86 323.03 15.86 323.25 15.86 325.37 15.35 325.37 15.35 333.32 15.35 344.25 22 350.21 22 353.19 22 375.04 15.86 377.03 15.86 377.25 15.86 379.37 15.35 379.37 15.35 387.32 15.35 398.25 22 404.21 22 407.19 22 429.04 15.86 431.03 15.86 431.25 15.86 433.37 15.35 433.37 15.35 441.32 15.35 452.25 22 458.21 22 461.19 22 483.04 15.86 485.03 15.86 485.25 15.86 487.37 15.35 487.37 15.35 495.32 15.35 506.25 22 512.21 22 515.19 22 537.04 15.86 539.03 15.86 539.25 15.86 541.37 15.35 541.37 15.35 549.32 15.35 560.25 22 566.21 22 569.19 22 591.04 15.86 593.03 15.86 593.25 15.86 595.37 15.35 595.37 15.35 603.32 15.35 614.25 22 620.21 22 623.19 22 645.04 15.86 647.03 15.86 647.25 15.86 649.37 15.35 649.37 15.35 657.32 15.35 668.25 22 674.21 22 677.19 22 699.04 15.86 701.03 15.86 701.25 15.86 703.37 15.35 703.37 15.35 711.32 15.35 722.25 22 728.21 22 731.19 22 753.04 15.86 755.03 15.86 755.25 15.86 757.37 15.35 757.37 15.35 765.32 15.35 776.25 22 782.21 22 785.19 22 807.04 15.86 809.03 15.86 809.25 15.86 811.37 15.35 811.37 15.35 819.32 15.35 830.25 22 836.21 22 839.19 22 861.04 15.86 863.03 15.86 863.25 15.86 865.37 15.35 865.37 15.35 873.32 15.35 884.25 22 890.21 22 893.19 22 915.04 15.86 917.03 15.86 917.25 15.86 919.37 15.35 919.37 15.35 927.32 15.35 938.25 22 944.21 22 947.19 22 969.04 15.86 971.03 15.86 971.25 15.86 973.37 15.35 973.37 15.35 981.32 15.35 992.25 22 998.21 22 1001.19 22 1023.04 15.86 1025.03 15.86 1025.25 15.86 1027.37 15.35 1027.37 15.35 1035.32 15.35 1046.25 22 1052.21 22 1055.19 22 1077.04 15.86 1079.03 15.86 1079.25 15.86 1081.37 15.35 1081.37 15.35 1089.32 15.35 1100.24 22 1106.21 22 1109.19 22 1131.04 15.86 1133.03 15.86 1133.25 15.86 1135.37 15.35 1135.37 15.35 1143.32 15.35 1154.24 22 1160.21 22 1163.19 22 1185.04 15.86 1187.03 15.86 1187.25 15.86 1189.37 15.35 1189.37 15.35 1197.32 15.35 1208.24 22 1214.21 22 1217.19 22 1239.04 15.86 1241.03 15.86 1241.25 15.86 1243.37 15.35 1243.37 15.35 1251.32 15.35 1262.24 22 1268.21 22 1271.19 22 1293.04 15.86 1295.03 15.86 1295.25 15.86 1297.37 15.35 1297.37 15.35 1305.32 15.35 1316.24 22 1322.21 22 1325.19 22 1347.04 15.86 1349.03 15.86 1349.25 15.86 1351.37 15.35 1351.37 15.35 1359.32 15.35 1370.24 22 1376.21 22 1379.19 22 1401.04 15.86 1403.03 15.86 1403.25 15.86 1405.37 15.35 1405.37 15.35 1413.32 15.35 1424.24 22 1430.21 22 1433.19 22 1455.04 15.86 1457.03 15.86 1457.25 15.86 1459.37 15.35 1459.37 15.35 1467.32 15.35 1478.24 22 1484.21 22 1487.19 22 1509.04 15.86 1511.03 15.86 1511.25 15.86 1513.37 15.35 1513.37 15.35 1521.32 15.35 1532.24 22 1538.21 22 1541.19 22 1563.04 15.86 1565.03 15.86 1565.25 15.86 1567.37 15.35 1567.37 15.35 1575.32 15.35 1586.24 22 1592.21 22 1595.19 22 1617.04 15.86 1619.03 15.86 1619.25 15.86 1621.37 15.35 1621.37 15.35 1629.32 15.35 1640.25 22 1646.21 22 1649.19 22 1671.04 15.86 1673.03 15.86 1673.25 15.86 1675.37 15.35 1675.37 15.35 1683.32 15.35 1694.25 22 1700.21 22 1703.19 22 1725.04 15.86 1727.03 15.86 1727.25 15.86 1727.58 15.9 1728 15.96 1728 15.96 1728-0 1728-0 1728-0 0-0 0-0Z" fill="rgb(37,200,255)"/></svg>